HIERARCHY
ROOT mixamorig:Hips
{
	OFFSET 0.000000 201.639420 0.000000
	CHANNELS 6 Xposition Yposition Zposition Xrotation Yrotation Zrotation
	JOINT mixamorig:Spine
	{
		OFFSET 0.006200 19.524994 -2.481800
		CHANNELS 3 Xrotation Yrotation Zrotation
		JOINT mixamorig:Spine1
		{
			OFFSET -0.000900 22.835007 -2.825400
			CHANNELS 3 Xrotation Yrotation Zrotation
			JOINT mixamorig:Spine2
			{
				OFFSET -0.020600 26.552490 -3.193300
				CHANNELS 3 Xrotation Yrotation Zrotation
				JOINT mixamorig:Neck
				{
					OFFSET -0.060000 30.701813 1.352200
					CHANNELS 3 Xrotation Yrotation Zrotation
					JOINT mixamorig:Head
					{
						OFFSET -0.087200 22.547607 3.670900
						CHANNELS 3 Xrotation Yrotation Zrotation
						JOINT mixamorig:HeadTop_End
						{
							OFFSET -0.830600 40.355194 7.893500
							CHANNELS 3 Xrotation Yrotation Zrotation
							End Site
							{
								OFFSET 0.000000 30.592346 0.000000
							}
						}
						JOINT mixamorig:RightEye
						{
							OFFSET -6.302100 18.118591 16.197100
							CHANNELS 3 Xrotation Yrotation Zrotation
							End Site
							{
								OFFSET 0.000000 30.592346 0.000000
							}
						}
						JOINT mixamorig:LeftEye
						{
							OFFSET 6.741500 18.382690 16.401899
							CHANNELS 3 Xrotation Yrotation Zrotation
							End Site
							{
								OFFSET 0.000000 30.592346 0.000000
							}
						}
					}
				}
				JOINT mixamorig:LeftShoulder
				{
					OFFSET 11.924900 18.230499 1.425400
					CHANNELS 3 Xrotation Yrotation Zrotation
					JOINT mixamorig:LeftArm
					{
						OFFSET 25.435989 -0.697632 -5.229300
						CHANNELS 3 Xrotation Yrotation Zrotation
						JOINT mixamorig:LeftForeArm
						{
							OFFSET 54.684776 0.000000 0.000000
							CHANNELS 3 Xrotation Yrotation Zrotation
							JOINT mixamorig:LeftHand
							{
								OFFSET 55.098175 0.000000 0.000000
								CHANNELS 3 Xrotation Yrotation Zrotation
								JOINT mixamorig:LeftHandMiddle1
								{
									OFFSET 23.369751 0.000000 0.000000
									CHANNELS 3 Xrotation Yrotation Zrotation
									JOINT mixamorig:LeftHandMiddle2
									{
										OFFSET 6.378677 0.000000 0.000000
										CHANNELS 3 Xrotation Yrotation Zrotation
										JOINT mixamorig:LeftHandMiddle3
										{
											OFFSET 6.148331 0.000000 0.000000
											CHANNELS 3 Xrotation Yrotation Zrotation
											JOINT mixamorig:LeftHandMiddle4
											{
												OFFSET 6.582504 0.000000 0.000000
												CHANNELS 3 Xrotation Yrotation Zrotation
												End Site
												{
													OFFSET -1.168900 6.395691 1.028606
												}
											}
										}
									}
								}
								JOINT mixamorig:LeftHandThumb1
								{
									OFFSET 7.235672 -3.848206 5.434273
									CHANNELS 3 Xrotation Yrotation Zrotation
									JOINT mixamorig:LeftHandThumb2
									{
										OFFSET 6.568451 -3.792297 3.792300
										CHANNELS 3 Xrotation Yrotation Zrotation
										JOINT mixamorig:LeftHandThumb3
										{
											OFFSET 6.063080 -3.500519 3.500518
											CHANNELS 3 Xrotation Yrotation Zrotation
											JOINT mixamorig:LeftHandThumb4
											{
												OFFSET 4.793182 -2.767334 2.767349
												CHANNELS 3 Xrotation Yrotation Zrotation
												End Site
												{
													OFFSET 0.101639 6.054260 1.275483
												}
											}
										}
									}
								}
								JOINT mixamorig:LeftHandIndex1
								{
									OFFSET 23.101074 -0.309540 4.992809
									CHANNELS 3 Xrotation Yrotation Zrotation
									JOINT mixamorig:LeftHandIndex2
									{
										OFFSET 6.226883 0.000000 0.000000
										CHANNELS 3 Xrotation Yrotation Zrotation
										JOINT mixamorig:LeftHandIndex3
										{
											OFFSET 6.094330 0.000000 0.000000
											CHANNELS 3 Xrotation Yrotation Zrotation
											JOINT mixamorig:LeftHandIndex4
											{
												OFFSET 5.482605 0.000000 0.000000
												CHANNELS 3 Xrotation Yrotation Zrotation
												End Site
												{
													OFFSET -1.427902 5.233032 0.797164
												}
											}
										}
									}
								}
								JOINT mixamorig:LeftHandRing1
								{
									OFFSET 22.299240 0.021149 -3.964172
									CHANNELS 3 Xrotation Yrotation Zrotation
									JOINT mixamorig:LeftHandRing2
									{
										OFFSET 6.321869 0.000000 0.000000
										CHANNELS 3 Xrotation Yrotation Zrotation
										JOINT mixamorig:LeftHandRing3
										{
											OFFSET 5.899796 0.000000 0.000000
											CHANNELS 3 Xrotation Yrotation Zrotation
											JOINT mixamorig:LeftHandRing4
											{
												OFFSET 6.517899 0.000000 0.000000
												CHANNELS 3 Xrotation Yrotation Zrotation
												End Site
												{
													OFFSET -1.637299 6.232208 0.980890
												}
											}
										}
									}
								}
								JOINT mixamorig:LeftHandPinky1
								{
									OFFSET 20.463791 -0.302338 -8.562233
									CHANNELS 3 Xrotation Yrotation Zrotation
									JOINT mixamorig:LeftHandPinky2
									{
										OFFSET 6.908646 0.000000 0.000000
										CHANNELS 3 Xrotation Yrotation Zrotation
										JOINT mixamorig:LeftHandPinky3
										{
											OFFSET 4.622849 0.000000 0.000000
											CHANNELS 3 Xrotation Yrotation Zrotation
											JOINT mixamorig:LeftHandPinky4
											{
												OFFSET 5.216080 0.000000 0.000000
												CHANNELS 3 Xrotation Yrotation Zrotation
												End Site
												{
													OFFSET -0.606308 5.116241 0.814926
												}
											}
										}
									}
								}
							}
						}
					}
				}
				JOINT mixamorig:RightShoulder
				{
					OFFSET -12.001300 18.284088 1.348900
					CHANNELS 3 Xrotation Yrotation Zrotation
					JOINT mixamorig:RightArm
					{
						OFFSET -25.308500 -0.751312 -5.164599
						CHANNELS 3 Xrotation Yrotation Zrotation
						JOINT mixamorig:RightForeArm
						{
							OFFSET -54.684429 0.000000 0.000000
							CHANNELS 3 Xrotation Yrotation Zrotation
							JOINT mixamorig:RightHand
							{
								OFFSET -55.150291 0.000000 0.000000
								CHANNELS 3 Xrotation Yrotation Zrotation
								JOINT mixamorig:RightHandMiddle1
								{
									OFFSET -23.317566 0.000000 0.000000
									CHANNELS 3 Xrotation Yrotation Zrotation
									JOINT mixamorig:RightHandMiddle2
									{
										OFFSET -6.378403 0.000000 0.000000
										CHANNELS 3 Xrotation Yrotation Zrotation
										JOINT mixamorig:RightHandMiddle3
										{
											OFFSET -6.148193 0.000000 0.000000
											CHANNELS 3 Xrotation Yrotation Zrotation
											JOINT mixamorig:RightHandMiddle4
											{
												OFFSET -6.583389 0.000000 0.000000
												CHANNELS 3 Xrotation Yrotation Zrotation
												End Site
												{
													OFFSET 1.171692 6.395905 1.029786
												}
											}
										}
									}
								}
								JOINT mixamorig:RightHandThumb1
								{
									OFFSET -7.190521 -3.860474 5.435846
									CHANNELS 3 Xrotation Yrotation Zrotation
									JOINT mixamorig:RightHandThumb2
									{
										OFFSET -6.567429 -3.791718 3.791708
										CHANNELS 3 Xrotation Yrotation Zrotation
										JOINT mixamorig:RightHandThumb3
										{
											OFFSET -6.062469 -3.500153 3.500166
											CHANNELS 3 Xrotation Yrotation Zrotation
											JOINT mixamorig:RightHandThumb4
											{
												OFFSET -4.792618 -2.767029 2.767022
												CHANNELS 3 Xrotation Yrotation Zrotation
												End Site
												{
													OFFSET -0.100327 6.053253 1.276754
												}
											}
										}
									}
								}
								JOINT mixamorig:RightHandIndex1
								{
									OFFSET -23.048981 -0.310791 4.992554
									CHANNELS 3 Xrotation Yrotation Zrotation
									JOINT mixamorig:RightHandIndex2
									{
										OFFSET -6.227539 0.000000 0.000000
										CHANNELS 3 Xrotation Yrotation Zrotation
										JOINT mixamorig:RightHandIndex3
										{
											OFFSET -6.095047 0.000000 0.000000
											CHANNELS 3 Xrotation Yrotation Zrotation
											JOINT mixamorig:RightHandIndex4
											{
												OFFSET -5.484772 0.000000 0.000000
												CHANNELS 3 Xrotation Yrotation Zrotation
												End Site
												{
													OFFSET 1.420593 5.237305 0.797056
												}
											}
										}
									}
								}
								JOINT mixamorig:RightHandRing1
								{
									OFFSET -22.246323 0.020569 -3.963762
									CHANNELS 3 Xrotation Yrotation Zrotation
									JOINT mixamorig:RightHandRing2
									{
										OFFSET -6.322128 0.000000 0.000000
										CHANNELS 3 Xrotation Yrotation Zrotation
										JOINT mixamorig:RightHandRing3
										{
											OFFSET -5.900024 0.000000 0.000000
											CHANNELS 3 Xrotation Yrotation Zrotation
											JOINT mixamorig:RightHandRing4
											{
												OFFSET -6.518356 0.000000 0.000000
												CHANNELS 3 Xrotation Yrotation Zrotation
												End Site
												{
													OFFSET 1.636398 6.232697 0.982186
												}
											}
										}
									}
								}
								JOINT mixamorig:RightHandPinky1
								{
									OFFSET -20.411011 -0.303314 -8.561701
									CHANNELS 3 Xrotation Yrotation Zrotation
									JOINT mixamorig:RightHandPinky2
									{
										OFFSET -6.907349 0.000000 0.000000
										CHANNELS 3 Xrotation Yrotation Zrotation
										JOINT mixamorig:RightHandPinky3
										{
											OFFSET -4.623840 0.000000 0.000000
											CHANNELS 3 Xrotation Yrotation Zrotation
											JOINT mixamorig:RightHandPinky4
											{
												OFFSET -5.218353 0.000000 0.000000
												CHANNELS 3 Xrotation Yrotation Zrotation
												End Site
												{
													OFFSET 0.602097 5.118835 0.816273
												}
											}
										}
									}
								}
							}
						}
					}
				}
			}
		}
	}
	JOINT mixamorig:LeftUpLeg
	{
		OFFSET 18.168400 -13.561905 -0.039000
		CHANNELS 3 Xrotation Yrotation Zrotation
		JOINT mixamorig:LeftLeg
		{
			OFFSET 0.577358 -80.825211 -3.695000
			CHANNELS 3 Xrotation Yrotation Zrotation
			JOINT mixamorig:LeftFoot
			{
				OFFSET -0.577356 -83.370262 -6.520700
				CHANNELS 3 Xrotation Yrotation Zrotation
				JOINT mixamorig:LeftToeBase
				{
					OFFSET 0.750401 -20.798306 25.135401
					CHANNELS 3 Xrotation Yrotation Zrotation
					JOINT mixamorig:LeftToe_End
					{
						OFFSET -0.000500 0.001200 19.917799
						CHANNELS 3 Xrotation Yrotation Zrotation
						End Site
						{
							OFFSET 0.000000 19.917805 0.000000
						}
					}
				}
			}
		}
	}
	JOINT mixamorig:RightUpLeg
	{
		OFFSET -18.162500 -13.585098 -0.041000
		CHANNELS 3 Xrotation Yrotation Zrotation
		JOINT mixamorig:RightLeg
		{
			OFFSET -0.595024 -80.945297 -3.631900
			CHANNELS 3 Xrotation Yrotation Zrotation
			JOINT mixamorig:RightFoot
			{
				OFFSET 0.595024 -83.218193 -6.561200
				CHANNELS 3 Xrotation Yrotation Zrotation
				JOINT mixamorig:RightToeBase
				{
					OFFSET -0.753601 -20.807106 25.115000
					CHANNELS 3 Xrotation Yrotation Zrotation
					JOINT mixamorig:RightToe_End
					{
						OFFSET 0.000299 0.001700 19.918200
						CHANNELS 3 Xrotation Yrotation Zrotation
						End Site
						{
							OFFSET 0.000000 19.918203 0.000000
						}
					}
				}
			}
		}
	}
}
MOTION
Frames: 4
Frame Time: 0.033333
0.780941 165.066605 4.531898 26.282216 -23.110983 8.772722 14.944293 2.649771 -0.811831 8.963935 1.485185 -0.662915 8.938222 1.596781 -0.765970 -7.681706 3.404094 -7.581601 -43.038419 9.839293 7.896950 -0.000000 -0.000000 0.000000 -0.000000 -0.000000 0.000000 -0.000000 -0.000000 0.000000 3.882914 -6.508356 9.599205 -50.334307 5.664302 -65.190064 0.002887 -88.617238 0.002902 6.264833 0.728657 20.123554 0.379166 -2.257484 19.066125 0.561583 2.728262 -23.258061 0.141550 1.391775 -11.614364 -0.000000 0.000000 0.000000 -17.566813 -15.161517 2.816366 5.941885 34.828688 2.497592 0.568202 14.982652 3.777913 -0.000001 0.000001 0.000001 0.378536 -2.255680 19.050101 0.560829 2.726500 -23.242051 0.141561 1.391776 -11.614354 -0.000001 -0.000002 -0.000003 0.378544 -2.255686 19.050115 0.560821 2.726508 -23.242058 0.141564 1.391772 -11.614358 -0.000000 -0.000002 -0.000001 -0.961330 1.570938 19.552509 0.566538 -1.332682 -23.712286 0.141553 1.391779 -11.614366 -0.000001 -0.000000 -0.000002 3.957876 12.246753 4.302067 -39.136564 11.820398 47.546777 0.000295 93.103183 -0.000314 17.696059 9.495916 8.403507 0.149423 1.436596 -11.875405 0.359600 -2.211215 18.471794 0.090452 -1.120145 9.232406 -0.000003 0.000000 -0.000004 30.649589 13.159485 -0.321302 7.052362 -37.300848 -1.831151 -0.062480 -14.157187 -3.530763 -0.000001 -0.000001 0.000002 0.149418 1.436592 -11.875405 0.359611 -2.211201 18.471796 0.090448 -1.120148 9.232407 -0.000004 0.000001 0.000000 0.149414 1.436599 -11.875400 0.359614 -2.211222 18.471792 0.090446 -1.120129 9.232419 -0.000005 0.000000 0.000001 0.149416 1.436585 -11.875412 0.359605 -2.211197 18.471801 0.090443 -1.120148 9.232409 -0.000002 -0.000001 0.000004 -76.856342 -0.757953 21.619941 59.397695 -0.056567 4.955422 -4.730503 1.375719 -16.463082 0.000002 0.000002 0.000001 -0.000000 0.000000 -0.000000 -72.820506 -6.104803 -20.958627 63.826875 -1.744275 -7.613726 -13.078852 -2.747050 15.670640 -7.617303 -0.000014 -0.000001 -0.000001 0.000001 0.000001 
0.695738 165.434357 4.875603 26.535597 -23.235142 8.876812 14.957952 2.390521 -0.880354 8.937722 1.334991 -0.665882 8.912694 1.453714 -0.763213 -7.585072 3.552829 -7.301985 -43.213125 10.599501 8.024934 -0.000000 0.000000 0.000000 -0.000000 0.000000 0.000000 -0.000000 0.000000 0.000000 3.764255 -6.333644 8.562186 -48.627238 5.794710 -65.562678 -0.000817 -90.871658 -0.000727 6.531783 2.117144 22.052400 0.395792 -2.305025 19.484035 0.614414 2.847920 -24.344225 0.155033 1.455752 -12.156483 0.000004 0.000001 -0.000001 -17.848020 -15.470845 2.743246 5.964213 35.164245 2.515424 0.580999 15.150034 3.792046 0.000001 0.000001 -0.000001 0.395155 -2.303224 19.468018 0.613622 2.846161 -24.328196 0.155028 1.455762 -12.156488 -0.000003 -0.000001 -0.000002 0.395153 -2.303238 19.468020 0.613620 2.846174 -24.328196 0.155032 1.455753 -12.156493 -0.000004 -0.000001 0.000002 -0.972546 1.513508 19.969014 0.620264 -1.213415 -24.794669 0.155038 1.455754 -12.156482 -0.000002 0.000001 0.000004 3.977048 12.138319 4.060673 -38.582192 11.662868 49.503944 -0.003719 95.835375 0.003718 22.999976 11.391056 7.022130 0.174890 1.552761 -12.852013 0.443322 -2.447443 20.531554 0.111669 -1.243612 10.261043 0.000005 0.000000 -0.000001 30.619752 13.371325 -0.162245 7.073642 -37.563845 -1.841356 -0.052788 -14.288321 -3.542830 -0.000002 -0.000001 -0.000001 0.174884 1.552753 -12.852015 0.443330 -2.447422 20.531562 0.111668 -1.243610 10.261045 -0.000000 0.000000 0.000004 0.174892 1.552758 -12.852018 0.443332 -2.447433 20.531561 0.111665 -1.243617 10.261041 0.000000 -0.000000 0.000001 0.174888 1.552757 -12.852017 0.443332 -2.447431 20.531562 0.111660 -1.243614 10.261050 -0.000002 -0.000001 0.000001 -76.722245 -0.623194 21.695507 59.152976 -0.146341 4.994807 -4.874606 1.392953 -16.491476 -0.000024 0.000003 0.000033 0.000000 -0.000000 0.000000 -72.690357 -6.297536 -20.744056 63.413375 -1.905913 -7.855442 -13.108606 -2.497472 15.551588 -7.677787 0.000003 0.000002 -0.000001 -0.000004 -0.000000 
0.509220 165.566177 5.050209 26.864382 -23.416701 9.050112 14.978518 2.103924 -0.870499 8.924140 1.151449 -0.635934 8.901377 1.275821 -0.724931 -7.607988 3.776853 -7.088014 -43.443176 11.662214 8.071168 0.000000 -0.000000 -0.000001 0.000000 -0.000000 -0.000001 0.000000 -0.000000 -0.000001 3.626058 -6.146586 7.020114 -47.117548 5.595783 -65.304026 -0.002839 -92.892075 -0.002708 6.552397 2.651517 23.619441 0.405595 -2.332503 19.726059 0.625989 2.873335 -24.576238 0.157992 1.469405 -12.272266 0.000002 0.000001 -0.000001 -18.120521 -15.773304 2.680625 5.987140 35.509054 2.533630 0.594135 15.321964 3.806521 0.000004 0.000004 0.000001 0.404940 -2.330695 19.710073 0.625186 2.871596 -24.560228 0.157985 1.469400 -12.272262 -0.000001 -0.000001 -0.000001 0.404936 -2.330697 19.710073 0.625189 2.871586 -24.560228 0.157980 1.469398 -12.272270 0.000001 -0.000000 -0.000001 -0.978822 1.480256 20.210219 0.632030 -1.188090 -25.025881 0.157985 1.469391 -12.272274 0.000004 0.000000 0.000001 3.977667 11.990249 3.729898 -37.897465 11.623358 51.301991 0.000338 99.009568 -0.000382 25.388868 11.214409 5.696359 0.202420 1.668781 -13.831387 0.535791 -2.681137 22.597845 0.135166 -1.367046 11.292652 -0.000001 -0.000001 -0.000003 30.609964 13.450540 -0.103721 7.095508 -37.834098 -1.851752 -0.042852 -14.423085 -3.555216 -0.000001 -0.000002 -0.000001 0.202424 1.668776 -13.831391 0.535794 -2.681122 22.597840 0.135172 -1.367047 11.292648 0.000001 -0.000001 -0.000003 0.202425 1.668783 -13.831386 0.535796 -2.681139 22.597841 0.135172 -1.367037 11.292650 0.000002 0.000002 0.000003 0.202414 1.668777 -13.831392 0.535801 -2.681132 22.597847 0.135158 -1.367042 11.292657 0.000002 -0.000001 -0.000002 -76.748425 -0.632737 21.817620 59.077059 -0.159407 5.062940 -5.014282 1.434440 -16.743913 0.000003 0.000006 0.000009 0.000000 0.000000 -0.000000 -72.811319 -6.339505 -20.443685 63.287044 -1.856444 -8.064410 -13.108213 -2.503723 15.566397 -7.701012 0.000021 0.000007 -0.000001 -0.000004 -0.000000 
0.198986 165.487930 5.063683 27.205154 -23.622658 9.275900 15.044532 1.880785 -0.793789 8.933307 0.990348 -0.585623 8.913446 1.115737 -0.666319 -7.711078 4.006330 -6.968503 -43.673309 12.820179 7.860399 -0.000000 0.000000 0.000000 -0.000000 0.000000 0.000000 -0.000000 0.000000 0.000000 3.494802 -5.962847 5.455751 -45.797340 5.559998 -64.813502 -0.001386 -94.554687 -0.001352 6.312607 2.692602 24.517473 0.415764 -2.360640 19.974390 0.637985 2.899375 -24.814239 0.161042 1.483383 -12.391065 0.000003 0.000001 -0.000000 -18.161987 -15.819517 2.671653 6.010603 35.862772 2.552245 0.607577 15.498401 3.821337 0.000001 0.000000 0.000001 0.415101 -2.358844 19.958366 0.637166 2.897636 -24.798224 0.161043 1.483400 -12.391063 -0.000001 0.000000 0.000001 0.415097 -2.358845 19.958381 0.637168 2.897630 -24.798240 0.161038 1.483389 -12.391067 0.000001 0.000000 0.000002 -0.985162 1.446085 20.457643 0.644203 -1.162160 -25.263032 0.161047 1.483396 -12.391065 -0.000001 0.000000 0.000002 3.942855 11.797930 3.452776 -36.861045 11.985375 52.528543 0.000183 102.354025 -0.000190 26.617934 9.821292 4.080700 0.232013 1.784662 -14.813562 0.636935 -2.911982 24.670529 0.160962 -1.490385 12.327170 0.000004 0.000000 -0.000004 30.610555 13.445960 -0.107117 7.117969 -38.111332 -1.862325 -0.032693 -14.561342 -3.567906 -0.000001 -0.000001 0.000000 0.232017 1.784650 -14.813565 0.636932 -2.911959 24.670531 0.160965 -1.490375 12.327160 -0.000002 -0.000001 0.000002 0.232024 1.784662 -14.813560 0.636931 -2.911986 24.670524 0.160964 -1.490366 12.327166 0.000000 0.000001 0.000001 0.232022 1.784659 -14.813557 0.636939 -2.911990 24.670519 0.160960 -1.490374 12.327172 -0.000001 0.000001 -0.000000 -76.876217 -0.707863 21.965424 59.121783 -0.141146 5.171987 -5.139273 1.481795 -17.064953 -0.000043 0.000002 0.000058 0.000000 -0.000001 -0.000000 -73.120699 -6.262332 -20.112672 63.418054 -1.791803 -8.285041 -13.090634 -2.539183 15.777107 -7.680380 0.000001 -0.000002 -0.000001 0.000001 -0.000000 
